<svg width="139" height="63" fill="none" xmlns="http://www.w3.org/2000/svg"><path fill-rule="evenodd" clip-rule="evenodd" d="M47.286 60.107c0-.576.086-1.06.256-1.452.125-.288.3-.547.518-.776a2.19 2.19 0 0 1 .72-.51 3.033 3.033 0 0 1 1.2-.224c.822 0 1.478.26 1.972.776.492.518.738 1.238.738 2.16 0 .914-.245 1.63-.733 2.144-.489.517-1.143.775-1.96.775-.829 0-1.488-.256-1.977-.77-.489-.513-.734-1.22-.734-2.123zm55.132 2.79v-5.602h1.127v4.648h2.791v.955h-3.918zm-18.179 0v-5.649h4.121v.955h-2.993v1.254h2.783v.955h-2.783v1.53h3.102v.956h-4.23zm-16.458 0v-4.694h-1.649v-.955h4.416v.955h-1.64v4.694h-1.127zm-40.998 0v-5.649h1.128v2.225h2.192v-2.225h1.128v5.65h-1.128v-2.47h-2.192v2.47h-1.128zm89.157-30.044c1.328-3.424 2.527-5.774 3.597-7.039 1.07-1.276 2.304-1.908 3.703-1.908.94 0 1.704.262 2.303.8.6.536.894 1.227.894 2.063 0 .835-.235 1.515-.717 2.028-.482.513-1.117.763-1.893.763-.823 0-1.493-.226-1.998-.68-.506-.453-.752-1.038-.752-1.753 0-.12.011-.275.047-.454.035-.19.093-.393.164-.608-.929.585-1.716 1.515-2.398 2.78-.67 1.276-1.293 2.994-1.845 5.153-.494 1.933-.906 3.733-1.211 5.416-.317 1.67-.47 2.875-.47 3.591 0 .381.07.668.223.859 1.846 2.434 14.51-18.312 23.413-18.312-8.836 2.193-19.058 20.587-24.318 20.4-1.563-.057-2.786-.717-3.656-2.136-.87-1.42-1.304-3.388-1.304-5.929v-.87c-1.447 3.398-2.834 5.82-4.138 7.264-1.317 1.444-2.763 2.171-4.35 2.171-.834 0-1.505-.263-2.022-.788-.517-.525-.775-1.216-.775-2.075 0-.93.246-1.682.728-2.243.482-.56 1.129-.835 1.94-.835.823 0 1.492.227 1.987.68.493.454.823 1.157.987 2.112 1.763-1.396 3.244-3.46 4.455-6.191 1.211-2.72 1.822-5.214 1.822-7.468 0-.358-.082-.644-.259-.883-.176-.226-.375-.345-.599-.345-.296 0-.717.201-1.262.605a56.555 56.555 0 0 0-1.971 1.772c-.224.217-.434.416-.628.595-.445.425-.91.878-1.393 1.358-1.564 1.586-2.786 2.803-3.68 3.638-4.501 4.151-7.911 6.86-10.239 8.148-2.315 1.276-4.584 1.92-6.817 1.92-2.363 0-4.267-.68-5.701-2.04-1.435-1.372-2.151-3.15-2.151-5.332 0-1.08.184-2.144.553-3.192-.389.413-.876.925-1.47 1.546-5.69 6.012-9.687 9.018-11.98 9.018-1.433 0-2.562-.44-3.397-1.313-.834-.87-1.257-2.051-1.257-3.543 0-1.216.423-2.85 1.258-4.902.84-2.04 2.124-4.563 3.86-7.57l-.224.197a131.25 131.25 0 0 0-2.273 2.303c-.97 1.014-1.71 1.72-2.22 2.121l-.295.313a138.31 138.31 0 0 1-3.068 3.197c-2.621 2.612-4.714 4.354-6.3 5.2-1.588.86-3.315 1.373-5.197 1.564l-1.059 2.483-8.784-.004 1.474-3.446a24.43 24.43 0 0 1-5.207-2.374c-1.658-.99-3.28-2.219-4.89-3.674-3.633 3.758-6.83 6.442-9.592 8.076-2.775 1.634-5.478 2.446-8.111 2.446-2.34 0-4.173-.644-5.502-1.92C.66 44.315 0 42.55 0 40.283c0-1.98.565-3.626 1.704-4.915 1.14-1.3 2.599-1.944 4.374-1.944 1.199 0 2.162.322 2.903.978.74.657 1.105 1.503 1.105 2.53 0 1.026-.317 1.848-.952 2.457-.623.609-1.623 1.05-2.974 1.336-1.423.346-2.34.704-2.739 1.062-.4.358-.6.87-.6 1.526 0 .883.459 1.623 1.376 2.231.917.609 2.092.907 3.514.907 2.316 0 4.809-.835 7.477-2.505s5.713-4.295 9.133-7.885c-1.152-1.384-2.01-2.744-2.586-4.104-.576-1.372-.857-2.732-.857-4.116 0-2.028.634-3.721 1.916-5.093 1.269-1.372 2.856-2.064 4.76-2.064 1.27 0 2.48.298 3.656.895 1.163.596 2.304 1.48 3.409 2.672 6.406-7.193 12.401-13.039 17.973-17.525C58.164 2.243 62.032 0 64.194 0c.106.024.188.06.224.107.035.048.047.131.047.239 0 .286-.752 1.801-2.245 4.545a385.73 385.73 0 0 0-17.927 37.624 9.147 9.147 0 0 0 4.209-1.264c1.328-.764 3.208-2.41 5.642-4.927a175.274 175.274 0 0 1 4.26-4.258c.122-.128.254-.263.394-.406a75.4 75.4 0 0 0 1.482-1.54l1.763-1.848a46.424 46.424 0 0 0 2.268-2.624c5.578-6.972 10.975-14.479 16.404-21.615l3.274-.025L68.896 32.22c-.635 1.193-1.505 2.768-2.574 4.748-2.14 3.853-3.21 6.108-3.21 6.788a.94.94 0 0 0 .294.704c.188.179.447.274.776.274.964 0 3.891-2.469 8.781-7.407l2.586-2.625a176.238 176.238 0 0 1 3.834-3.731 25.042 25.042 0 0 1 2.784-2.485c.21-.163.42-.322.631-.477.303-.23.584-.43.844-.599a24.355 24.355 0 0 1 4.144-2.3c1.905-.799 3.61-1.204 5.15-1.204 1.398 0 2.503.405 3.302 1.205.812.799 1.212 1.909 1.212 3.305 0 2.23-1.34 4.306-4.032 6.215-2.681 1.907-6.16 3.22-10.427 3.947a71.392 71.392 0 0 0-1.105 3.377c-.2.74-.306 1.3-.306 1.706 0 .489.176.834.517 1.049.341.203.882.31 1.622.31 1.81 0 3.727-.537 5.748-1.622 2.01-1.086 4.867-3.256 8.535-6.526a309.235 309.235 0 0 0 4.82-4.365c.49-.455.958-.882 1.405-1.283l.111-.125c.164-.155.294-.286.375-.382 2.258-2.469 3.974-4.187 5.184-5.153 1.2-.966 2.175-1.443 2.904-1.443 1.035 0 1.845.56 2.445 1.693.6 1.134.893 2.696.893 4.7 0 .108-.011.37-.046.764s-.083.919-.153 1.575zm-90.76 2.075a414.676 414.676 0 0 0 4.337-4.735 268.051 268.051 0 0 0 4.244-4.856c-.529-.536-1.07-.93-1.623-1.192a4.367 4.367 0 0 0-1.821-.382c-1.681 0-3.221.74-4.609 2.219-1.387 1.48-2.08 3.125-2.08 4.938 0 .764.13 1.492.376 2.16.259.68.646 1.3 1.175 1.848zm12.883 3.162A456.066 456.066 0 0 1 49.23 20.005 494.408 494.408 0 0 1 61.432 2.099c-2.986 1.3-6.371 3.615-10.157 6.955-3.772 3.328-9.039 8.733-15.798 16.212 1.01 1.61 1.74 3.113 2.198 4.509a13.89 13.89 0 0 1 .694 4.366c0 .824-.095 2.064-.27 3.746l-.036.203zm-12.13-2.1c1.704 1.54 3.385 2.815 5.053 3.806 1.658.99 3.257 1.67 4.773 2.015.411-1.3.728-2.576.94-3.828.223-1.253.33-2.458.33-3.627 0-1.61-.2-3.078-.6-4.426a12.019 12.019 0 0 0-1.81-3.65 2203.15 2203.15 0 0 1-5.337 6 367.164 367.164 0 0 1-3.35 3.71zm57.47 1.444c2.89-.441 5.465-1.73 7.71-3.841 2.245-2.124 3.374-4.176 3.374-6.156 0-.56-.153-1.038-.47-1.431-.306-.395-.67-.597-1.082-.597-1.163 0-2.727 1.157-4.666 3.483-1.928 2.315-3.563 5.166-4.867 8.542zM48.444 60.069c0 .64.147 1.125.438 1.457.292.33.662.496 1.11.496.45 0 .818-.165 1.107-.492.288-.329.432-.82.432-1.477 0-.648-.14-1.132-.421-1.45-.28-.32-.652-.48-1.117-.48-.464 0-.839.163-1.123.485-.283.323-.426.81-.426 1.46z" fill="#AB6C02"/></svg>