<svg width="139" height="63" viewBox="0 0 139 63" fill="none" xmlns="http://www.w3.org/2000/svg">
<path fill-rule="evenodd" clip-rule="evenodd" d="M47.2865 60.107C47.2865 59.5309 47.3721 59.047 47.5418 58.6552C47.6675 58.3672 47.8412 58.1081 48.0602 57.8792C48.2791 57.6504 48.5189 57.4808 48.7794 57.369C49.1267 57.2205 49.5271 57.1454 49.9806 57.1454C50.8023 57.1454 51.458 57.4045 51.9516 57.9214C52.4442 58.4394 52.6902 59.1589 52.6902 60.0806C52.6902 60.9946 52.4454 61.7101 51.9569 62.2255C51.4683 62.7424 50.8139 63 49.9961 63C49.1681 63 48.5086 62.7437 48.0201 62.2295C47.5315 61.7165 47.2865 61.0091 47.2865 60.107ZM102.418 62.8975V57.2954H103.545V61.9428H106.336V62.8975H102.418ZM84.2393 62.8975V57.248H88.3602V58.2027H85.3668V59.4574H88.1503V60.4121H85.3668V61.9428H88.469V62.8975H84.2393ZM67.7807 62.8975V58.2027H66.1323V57.248H70.5485V58.2027H68.9081V62.8975H67.7807ZM26.7834 62.8975V57.248H27.9108V59.4731H30.1034V57.248H31.2308V62.8975H30.1034V60.4279H27.9108V62.8975H26.7834ZM115.94 32.853C117.268 29.429 118.467 27.079 119.537 25.8143C120.607 24.5379 121.841 23.9063 123.24 23.9063C124.18 23.9063 124.944 24.1684 125.543 24.7053C126.143 25.242 126.437 25.9335 126.437 26.7687C126.437 27.604 126.202 28.2836 125.72 28.7968C125.238 29.31 124.603 29.5602 123.827 29.5602C123.004 29.5602 122.334 29.3336 121.829 28.8805C121.323 28.4273 121.077 27.8424 121.077 27.1271C121.077 27.0072 121.088 26.8524 121.124 26.6733C121.159 26.483 121.217 26.2802 121.288 26.0654C120.359 26.6497 119.572 27.5804 118.89 28.8451C118.22 30.1207 117.597 31.8385 117.045 33.9983C116.551 35.9308 116.139 37.7315 115.834 39.4138C115.517 41.0843 115.364 42.2889 115.364 43.005C115.364 43.3862 115.434 43.6728 115.587 43.8638C117.433 46.2976 130.097 25.5522 139 25.5522C130.164 27.7452 119.942 46.1387 114.682 45.9511C113.119 45.8953 111.896 45.235 111.026 43.8157C110.156 42.3962 109.722 40.4282 109.722 37.8871V37.0164C108.275 40.4155 106.888 42.8375 105.584 44.2806C104.267 45.7245 102.821 46.4524 101.234 46.4524C100.4 46.4524 99.7294 46.1894 99.2121 45.6645C98.6947 45.1394 98.4366 44.448 98.4366 43.5891C98.4366 42.6584 98.6831 41.9068 99.1653 41.3462C99.6469 40.7859 100.294 40.5111 101.105 40.5111C101.928 40.5111 102.597 40.7376 103.092 41.1916C103.585 41.6448 103.915 42.3481 104.079 43.3026C105.842 41.9068 107.323 39.8433 108.534 37.1118C109.745 34.3915 110.356 31.8985 110.356 29.6439C110.356 29.2863 110.274 28.9998 110.097 28.7613C109.921 28.5348 109.722 28.4156 109.498 28.4156C109.202 28.4156 108.781 28.6174 108.236 29.0213C107.632 29.5364 106.975 30.127 106.265 30.7929C106.041 31.0104 105.831 31.2085 105.637 31.3876C105.192 31.8131 104.727 32.2657 104.244 32.7456C102.68 34.3323 101.458 35.5488 100.564 36.384C96.0625 40.5355 92.6527 43.2433 90.3254 44.5317C88.0102 45.8082 85.7411 46.4524 83.5079 46.4524C81.1453 46.4524 79.241 45.7719 77.8066 44.4124C76.3722 43.0404 75.6558 41.2626 75.6558 39.0798C75.6558 37.9996 75.8405 36.9356 76.2095 35.888C75.8205 36.3006 75.3329 36.8128 74.7386 37.434C69.0489 43.4462 65.052 46.4524 62.7596 46.4524C61.3259 46.4524 60.1973 46.0112 59.3625 45.1395C58.5278 44.2687 58.1046 43.0879 58.1046 41.5965C58.1046 40.3801 58.5278 38.746 59.3625 36.6942C60.2039 34.6544 61.4869 32.1309 63.2231 29.1241L62.9993 29.3213C62.3738 29.9382 61.6136 30.7032 60.7261 31.6237C59.7551 32.6381 59.0153 33.3444 58.5056 33.7454L58.2113 34.0576C56.8942 35.4651 55.8721 36.5269 55.1432 37.2547C52.5217 39.8669 50.4292 41.6093 48.8422 42.4555C47.2552 43.3143 45.5276 43.8275 43.6465 44.0186L42.587 46.5015L33.8026 46.4978L35.2772 43.0521C33.4553 42.468 31.7268 41.68 30.0699 40.6783C28.4121 39.6885 26.7903 38.4592 25.1791 37.0044C21.5473 40.7619 18.35 43.4461 15.5877 45.0802C12.8129 46.7142 10.1096 47.5259 7.47656 47.5259C5.13736 47.5259 3.30381 46.8817 1.97529 45.6052C0.65902 44.3168 0 42.5509 0 40.2843C0 38.3045 0.564805 36.6577 1.70449 35.3694C2.8449 34.0693 4.30264 33.4252 6.07782 33.4252C7.27661 33.4252 8.24039 33.7471 8.98094 34.4032C9.72161 35.0599 10.0863 35.9062 10.0863 36.9326C10.0863 37.9587 9.76902 38.7814 9.13426 39.39C8.51108 39.9987 7.51147 40.44 6.1603 40.7256C4.73746 41.0722 3.82026 41.4299 3.42129 41.7875C3.02154 42.1459 2.82159 42.6582 2.82159 43.3141C2.82159 44.1975 3.27971 44.9373 4.19685 45.5451C5.11404 46.1539 6.28935 46.4522 7.71141 46.4522C10.0271 46.4522 12.5197 45.6171 15.1878 43.9466C17.8561 42.277 20.9008 39.6521 24.3212 36.0618C23.1691 34.6779 22.3111 33.3176 21.7355 31.9584C21.1589 30.5862 20.8775 29.2261 20.8775 27.8422C20.8775 25.8142 21.5122 24.121 22.7935 22.749C24.063 21.3768 25.6499 20.6853 27.5542 20.6853C28.8237 20.6853 30.0341 20.9829 31.2096 21.5798C32.3733 22.1756 33.5136 23.0592 34.619 24.252C41.0251 17.0587 47.0204 11.213 52.5924 6.72739C58.1637 2.24273 62.0316 0 64.194 0C64.2999 0.0236639 64.3824 0.0592336 64.4182 0.107356C64.4531 0.15463 64.4649 0.238332 64.4649 0.345799C64.4649 0.632414 63.7126 2.14718 62.2198 4.8905C55.578 17.0824 49.606 29.6201 44.293 42.5154C45.7625 42.4436 47.1728 42.0258 48.5015 41.2507C49.8301 40.4873 51.7103 38.8414 54.1435 36.3238C55.723 34.6974 57.1429 33.2776 58.4046 32.0662C58.5264 31.9383 58.6577 31.803 58.7985 31.6599C59.3982 31.0513 59.8915 30.5381 60.2797 30.1205L62.0432 28.2717C62.8654 27.3891 63.6268 26.5032 64.3115 25.6476C69.8886 18.6758 75.2858 11.1691 80.7146 4.0333L83.9892 4.00784L68.8956 32.2204C68.2608 33.4133 67.3912 34.9881 66.3216 36.968C64.1824 40.8212 63.1127 43.0758 63.1127 43.7564C63.1127 44.0302 63.2069 44.2685 63.4061 44.4597C63.5943 44.6388 63.8533 44.7344 64.1824 44.7344C65.1463 44.7344 68.0734 42.2651 72.9634 37.3265C74.0678 36.2045 74.926 35.334 75.549 34.7016C77.005 33.2483 78.282 32.0039 79.3831 30.971C80.1812 30.1344 81.1096 29.3063 82.1674 28.4864C82.3776 28.3232 82.5879 28.1641 82.7982 28.0091C83.1013 27.7792 83.3824 27.5794 83.6418 27.4102C85.014 26.4725 86.3941 25.7073 87.7862 25.1108C89.6906 24.3112 91.3958 23.9062 92.9353 23.9062C94.3339 23.9062 95.4393 24.3112 96.2382 25.1108C97.0496 25.9098 97.4495 27.0196 97.4495 28.4155C97.4495 30.6454 96.1091 32.7218 93.4175 34.6306C90.7369 36.5385 87.2572 37.8514 82.9906 38.5785C82.4616 40.0933 82.0975 41.227 81.886 41.9548C81.686 42.6946 81.5802 43.2551 81.5802 43.6607C81.5802 44.1495 81.7559 44.4951 82.0975 44.7099C82.4381 44.9127 82.9788 45.0202 83.7194 45.0202C85.5296 45.0202 87.4456 44.4834 89.4672 43.3979C91.4774 42.3124 94.3339 40.1416 98.0018 36.8724C99.2246 35.7989 100.823 34.344 102.822 32.507C103.312 32.0523 103.78 31.6248 104.227 31.2236C104.262 31.1831 104.299 31.1417 104.338 31.0994C104.502 30.944 104.632 30.813 104.713 30.7174C106.971 28.2481 108.687 26.5303 109.897 25.5639C111.097 24.5976 112.072 24.121 112.801 24.121C113.836 24.121 114.646 24.6815 115.246 25.8142C115.846 26.9479 116.139 28.5101 116.139 30.5144C116.139 30.6218 116.128 30.8847 116.093 31.2778C116.058 31.6718 116.01 32.1967 115.94 32.8528V32.853ZM25.1791 34.9283C26.6253 33.3778 28.0715 31.7912 29.5168 30.1926C30.9628 28.5822 32.3733 26.9599 33.7611 25.3375C33.2321 24.8007 32.6906 24.4068 32.1383 24.1448C31.586 23.8937 30.9746 23.7626 30.3165 23.7626C28.6355 23.7626 27.0959 24.5024 25.7082 25.9818C24.3212 27.4612 23.628 29.1071 23.628 30.9204C23.628 31.6837 23.7573 32.4117 24.0038 33.0795C24.2628 33.7592 24.6502 34.3797 25.1791 34.9283ZM38.0628 38.09C41.6248 32.0176 45.3393 25.9818 49.2304 20.005C53.1098 14.0291 57.1767 8.06416 61.4317 2.09921C58.4462 3.3994 55.0607 5.71392 51.2755 9.05413C47.5026 12.3823 42.2362 17.7867 35.4772 25.2658C36.4875 26.8761 37.2165 28.3793 37.6754 29.7749C38.1337 31.1707 38.3685 32.6264 38.3685 34.1413C38.3685 34.9647 38.2744 36.2047 38.0987 37.8871L38.0628 38.09ZM25.9322 35.99C27.6367 37.5296 29.3177 38.8052 30.9862 39.796C32.644 40.7859 34.2426 41.4655 35.7586 41.8113C36.1703 40.5111 36.4875 39.2347 36.6991 37.9826C36.9224 36.7298 37.0281 35.5252 37.0281 34.3559C37.0281 32.7456 36.8291 31.278 36.4292 29.9305C36.0293 28.5939 35.4179 27.3775 34.619 26.2802C32.644 28.5102 30.8571 30.5146 29.2818 32.2806C27.6949 34.0576 26.5787 35.2867 25.9322 35.99ZM83.4021 37.434C86.2934 36.9926 88.8684 35.7043 91.1133 33.5925C93.3584 31.4691 94.4872 29.4173 94.4872 27.4366C94.4872 26.8761 94.3339 26.3993 94.0164 26.0055C93.7107 25.6114 93.3468 25.4094 92.9353 25.4094C91.7716 25.4094 90.2079 26.5658 88.2686 28.8924C86.341 31.2069 84.7065 34.0576 83.4021 37.434ZM48.445 60.0688C48.445 60.7093 48.5916 61.1945 48.8832 61.5258C49.1746 61.856 49.5453 62.0216 49.9936 62.0216C50.4433 62.0216 50.8113 61.8573 51.1002 61.5299C51.3879 61.2011 51.5317 60.7093 51.5317 60.0531C51.5317 59.4048 51.3919 58.9207 51.1106 58.6026C50.8307 58.283 50.4589 58.1238 49.9936 58.1238C49.5296 58.1238 49.1553 58.2856 48.8714 58.6077C48.5876 58.9313 48.445 59.4178 48.445 60.0688Z" fill="#AB6C02"/>
</svg>
